<svg width="477.36" height="361.973" viewBox="0 0 358.02 271.48" class="displayed_equation" xmlns="http://www.w3.org/2000/svg">
  <path d="M 492.109375 509.682812 L 3456.210938 509.682812 M 492.109375 715.542187 L 3456.210938 715.542187 M 492.109375 921.401562 L 3456.210938 921.401562 M 492.109375 1127.221875 L 3456.210938 1127.221875 M 492.109375 1333.08125 L 3456.210938 1333.08125 M 492.109375 1538.940625 L 3456.210938 1538.940625 M 492.109375 1744.760937 L 3456.210938 1744.760937 M 492.109375 1950.620312 L 3456.210938 1950.620312 M 492.109375 2156.440625 L 3456.210938 2156.440625 M 492.109375 2362.221875 L 3456.210938 2362.221875 M 492.109375 509.682812 L 492.109375 2362.3 M 862.617188 509.682812 L 862.617188 2362.3 M 1233.125 509.682812 L 1233.125 2362.3 M 1603.632813 509.682812 L 1603.632813 2362.3 M 1974.140625 509.682812 L 1974.140625 2362.3 M 2344.6875 509.682812 L 2344.6875 2362.3 M 2715.195313 509.682812 L 2715.195313 2362.3 M 3085.703125 509.682812 L 3085.703125 2362.3 M 3456.210938 509.682812 L 3456.210938 2362.3" transform="matrix(.1 0 0 -.1 0 271.48)" fill="none" stroke-width="3.985" stroke-linejoin="round" stroke="#a5a5a6" stroke-miterlimit="10" />
  <path d="M 492.109375 509.682812 L 3406.210938 509.682812" transform="matrix(.1 0 0 -.1 0 271.48)" fill="none" stroke-width="7.97" stroke-linejoin="round" stroke="#000" stroke-miterlimit="10" />
  <path d="M 344.484375 220.511719 L 339.019531 218.445313 L 340.824219 220.511719 L 339.019531 222.574219" />
  <path d="M 3444.84375 509.682812 L 3390.195313 530.346875 L 3408.242188 509.682812 L 3390.195313 489.057812 Z M 3444.84375 509.682812" transform="matrix(.1 0 0 -.1 0 271.48)" fill="none" stroke-width="7.97" stroke="#000" stroke-miterlimit="10" />
  <path d="M188.390625 245.949219L188.390625 246.285156C189.226563 246.285156 189.484375 246.40625 189.484375 247.222656L189.484375 251.898438C189.484375 252.800781 189.371094 252.945313 188.390625 252.945313L188.390625 253.28125 191.582031 253.28125C193.992188 253.28125 195.585938 252.140625 195.585938 249.578125 195.585938 246.851563 193.78125 245.949219 191.457031 245.949219zM190.511719 246.429688C190.722656 246.40625 190.878906 246.40625 191.054688 246.40625 193.367188 246.40625 194.414063 247.554688 194.414063 249.675781 194.414063 252.1875 193.199219 252.855469 191.167969 252.855469 190.945313 252.855469 190.734375 252.84375 190.511719 252.820313L190.511719 246.429688M199.636719 252.585938C199.703125 253.078125 199.8125 253.335938 200.304688 253.335938 200.875 253.335938 201.140625 253.101563 201.511719 252.566406L201.34375 252.386719C201.1875 252.554688 201.03125 252.664063 200.820313 252.664063 200.585938 252.664063 200.484375 252.578125 200.484375 252.117188L200.484375 249.585938C200.484375 248.425781 200.027344 247.867188 198.8125 247.867188 197.59375 247.867188 196.847656 248.472656 196.847656 249.09375 196.847656 249.464844 197.09375 249.632813 197.316406 249.632813 197.628906 249.632813 197.804688 249.464844 197.804688 249.117188 197.804688 248.449219 197.917969 248.214844 198.554688 248.214844 199.222656 248.214844 199.558594 248.582031 199.558594 249.554688L199.558594 250.042969C198.597656 250.34375 196.621094 250.636719 196.621094 252.109375 196.621094 252.820313 197.09375 253.359375 197.953125 253.359375 198.664063 253.359375 199.066406 253.046875 199.59375 252.585938zM199.558594 252.253906C199.179688 252.566406 198.777344 252.742188 198.410156 252.742188 197.929688 252.742188 197.605469 252.398438 197.605469 251.839844 197.605469 250.96875 198.542969 250.667969 199.558594 250.414063L199.558594 252.253906" />
  <path d="M 206.898438 248.003906 L 205.003906 248.003906 L 205.003906 248.328125 C 205.371094 248.328125 205.628906 248.382813 205.628906 248.605469 C 205.628906 248.695313 205.59375 248.796875 205.570313 248.882813 L 204.503906 252.152344 L 204.421875 252.152344 L 204.265625 251.574219 L 203.171875 249.117188 C 203.105469 248.960938 203.015625 248.773438 203.015625 248.640625 C 203.015625 248.4375 203.152344 248.335938 203.652344 248.335938 L 203.652344 248.003906 L 201.265625 248.003906 L 201.265625 248.328125 C 201.667969 248.328125 201.824219 248.472656 201.9375 248.726563 L 203.574219 252.308594 C 203.710938 252.609375 203.910156 253.078125 203.910156 253.222656 C 203.910156 253.546875 203.273438 254.929688 202.917969 254.929688 C 202.640625 254.929688 202.40625 254.6875 202.015625 254.6875 C 201.714844 254.6875 201.488281 254.828125 201.488281 255.164063 C 201.488281 255.589844 201.8125 255.746094 202.3125 255.746094 C 203.21875 255.746094 203.765625 255.164063 204.390625 253.523438 L 206.128906 248.953125 C 206.285156 248.515625 206.453125 248.328125 206.898438 248.328125 L 206.898438 248.003906" />
  <path d="M 492.109375 509.682812 L 492.109375 2312.339062" transform="matrix(.1 0 0 -.1 0 271.48)" fill="none" stroke-width="7.97" stroke-linejoin="round" stroke="#000" stroke-miterlimit="10" />
  <path d="M 49.210938 36.386719 L 47.144531 41.851563 L 49.210938 40.046875 L 51.273438 41.851563" />
  <path d="M 492.109375 2350.932812 L 471.445313 2296.284375 L 492.109375 2314.33125 L 512.734375 2296.284375 Z M 492.109375 2350.932812" transform="matrix(.1 0 0 -.1 0 271.48)" fill="none" stroke-width="7.97" stroke="#000" stroke-miterlimit="10" />
  <path d="M16.269531 151.304688L16.269531 153.9375 16.605469 153.9375C16.605469 153.46875 16.671875 153.265625 16.882813 153.089844 17.074219 152.921875 17.375 152.878906 18.042969 152.878906L21.660156 152.878906 21.660156 152.933594 16.269531 157.058594 16.269531 158.957031 16.605469 158.957031C16.605469 158.453125 16.71875 158.265625 17.171875 157.90625L21.9375 157.90625C23.0625 157.90625 23.265625 158.074219 23.265625 158.957031L23.601563 158.957031 23.601563 156.347656 23.265625 156.347656C23.265625 157.183594 23.054688 157.359375 21.9375 157.359375L17.71875 157.359375 17.71875 157.304688 23.6875 152.6875 23.6875 152.320313 18.101563 152.320313C17.296875 152.320313 16.984375 152.207031 16.828125 152.027344 16.671875 151.859375 16.605469 151.703125 16.605469 151.304688L16.269531 151.304688M23.097656 144.953125L23.097656 145.066406C23.097656 145.601563 23.019531 145.734375 22.359375 145.734375L18.265625 145.734375 18.265625 146.003906 18.433594 147.566406 18.746094 147.566406C18.746094 146.851563 18.804688 146.664063 19.394531 146.664063L22.328125 146.664063C22.71875 147.109375 22.996094 147.464844 22.996094 148.035156 22.996094 148.613281 22.664063 149.039063 21.523438 149.039063L18.265625 149.039063 18.265625 149.285156 18.433594 150.722656 18.746094 150.722656C18.757813 150.121094 18.804688 149.964844 19.40625 149.964844L21.671875 149.964844C23.1875 149.964844 23.710938 149.429688 23.710938 148.503906 23.710938 147.789063 23.375 147.265625 22.796875 146.675781L22.796875 146.617188 23.65625 146.617188 23.65625 146.371094 23.398438 144.953125 23.097656 144.953125M19.617188 142.515625C19.316406 142.191406 18.902344 141.703125 18.902344 141.121094 18.902344 140.609375 19.148438 140.226563 20.097656 140.226563L22.304688 140.226563C23.085938 140.226563 23.277344 140.296875 23.277344 141.089844L23.601563 141.089844 23.601563 138.445313 23.277344 138.445313C23.277344 139.246094 23.074219 139.304688 22.304688 139.304688L19.59375 139.304688C19.28125 138.933594 18.902344 138.476563 18.902344 138.019531 18.902344 137.496094 19.148438 137.0625 20.164063 137.0625L22.304688 137.0625C22.984375 137.0625 23.277344 137.09375 23.277344 137.851563L23.601563 137.851563 23.601563 135.332031 23.277344 135.332031C23.277344 136.101563 23.007813 136.136719 22.304688 136.136719L20.03125 136.136719C18.679688 136.136719 18.1875 136.703125 18.1875 137.574219 18.1875 138.164063 18.511719 138.734375 19.117188 139.347656L19.117188 139.390625C18.578125 139.617188 18.1875 139.992188 18.1875 140.628906 18.1875 141.390625 18.601563 141.902344 19.125 142.503906L19.125 142.550781 18.222656 142.550781 18.222656 142.816406 18.546875 144.210938 18.871094 144.210938C18.871094 144.210938 18.847656 144.078125 18.847656 143.910156 18.847656 143.597656 18.949219 143.441406 19.351563 143.441406L22.472656 143.441406C23.140625 143.441406 23.277344 143.519531 23.277344 144.222656L23.601563 144.222656 23.601563 141.679688 23.277344 141.679688C23.277344 142.371094 23.140625 142.515625 22.515625 142.515625L19.617188 142.515625M15.722656 133.261719L15.722656 133.550781 16.113281 134.992188 16.425781 134.992188C16.425781 134.992188 16.40625 134.855469 16.40625 134.679688 16.40625 134.253906 16.492188 134.1875 16.996094 134.1875L23.265625 134.1875C23.410156 133.917969 23.710938 133.273438 23.710938 132.324219 23.710938 130.773438 22.664063 129.648438 20.664063 129.648438 19.214844 129.648438 18.1875 130.40625 18.1875 131.511719 18.1875 132.257813 18.667969 132.839844 19.136719 133.226563L19.136719 133.261719zM19.628906 133.261719C19.359375 133.0625 18.949219 132.570313 18.949219 132 18.949219 130.941406 19.953125 130.664063 21.023438 130.664063 22.261719 130.664063 23.253906 131.0625 23.253906 132.125 23.253906 132.714844 22.984375 133.050781 22.730469 133.261719L19.628906 133.261719M22.003906 124.550781C22.472656 124.90625 22.875 125.253906 22.875 126.15625 22.875 127.050781 22.171875 127.898438 20.632813 127.898438L20.632813 124.371094C19.070313 124.425781 18.1875 125.230469 18.1875 126.445313 18.1875 127.753906 19.082031 128.800781 20.945313 128.800781 22.742188 128.800781 23.710938 127.761719 23.710938 126.425781 23.710938 125.273438 23.007813 124.738281 22.160156 124.339844zM20.21875 127.90625C19.183594 127.820313 18.636719 127.371094 18.636719 126.613281 18.636719 125.820313 19.394531 125.453125 20.21875 125.421875L20.21875 127.90625M18.222656 121.9375L18.222656 122.207031 18.558594 123.589844 18.871094 123.589844C18.871094 123.589844 18.847656 123.46875 18.847656 123.242188 18.847656 122.84375 19.046875 122.84375 19.449219 122.84375L22.515625 122.84375C23.140625 122.84375 23.277344 122.921875 23.277344 123.65625L23.601563 123.65625 23.601563 120.867188 23.277344 120.867188C23.277344 121.703125 23.164063 121.914063 22.460938 121.914063L19.917969 121.914063C19.472656 121.648438 19.003906 121.289063 19.003906 121.035156 19.003906 120.898438 19.382813 120.679688 19.382813 120.308594 19.382813 120.0625 19.203125 119.820313 18.78125 119.820313 18.402344 119.820313 18.15625 120.03125 18.15625 120.464844 18.15625 121.003906 18.546875 121.335938 19.371094 121.90625L19.371094 121.9375 18.222656 121.9375M18.390625 112.171875L16.160156 112.25 16.160156 112.539063C16.394531 112.597656 16.484375 112.707031 16.484375 112.886719 16.484375 113.152344 16.136719 113.398438 16.136719 114.414063 16.148438 115.574219 16.773438 116.53125 17.945313 116.53125 19.117188 116.53125 19.648438 115.628906 20.164063 114.738281 20.6875 113.820313 21.078125 112.886719 22.0625 112.886719 22.90625 112.886719 23.242188 113.410156 23.242188 114.246094 23.253906 115.386719 22.898438 115.953125 21.359375 116.34375L21.359375 116.6875 23.765625 116.589844 23.765625 116.242188C23.542969 116.230469 23.398438 116.097656 23.398438 115.941406 23.398438 115.683594 23.734375 115.25 23.734375 114.089844 23.734375 112.796875 23.03125 111.824219 21.738281 111.824219 20.410156 111.824219 19.90625 112.929688 19.351563 113.921875 18.871094 114.761719 18.46875 115.5625 17.632813 115.5625 16.9375 115.5625 16.582031 115.128906 16.582031 114.367188 16.570313 113.242188 17.164063 112.820313 18.390625 112.507813L18.390625 112.171875M18.1875 108.601563C18.1875 110.109375 19.28125 111.101563 20.898438 111.101563 22.707031 111.101563 23.710938 110.164063 23.710938 108.601563 23.710938 107.152344 22.730469 106.125 20.855469 106.125 19.203125 106.125 18.1875 107.074219 18.1875 108.601563zM18.613281 108.644531C18.613281 107.652344 19.539063 107.152344 20.910156 107.152344 22.730469 107.152344 23.265625 107.640625 23.265625 108.558594 23.277344 109.515625 22.53125 110.0625 20.753906 110.0625 19.328125 110.0625 18.613281 109.492188 18.613281 108.644531M23.277344 102.78125C23.277344 103.582031 23.121094 103.636719 22.472656 103.636719L15.722656 103.636719 15.722656 103.917969 16.113281 105.390625 16.414063 105.390625C16.414063 105.390625 16.394531 105.222656 16.394531 105.03125 16.394531 104.753906 16.414063 104.5625 16.875 104.5625L22.472656 104.5625C23.097656 104.5625 23.277344 104.609375 23.277344 105.347656L23.601563 105.347656 23.601563 102.78125 23.277344 102.78125M23.398438 96.746094L23.097656 96.746094 23.097656 96.980469C23.097656 97.390625 22.984375 97.539063 22.40625 97.539063L15.722656 97.539063 15.722656 97.839844 16.113281 99.242188 16.425781 99.242188C16.425781 99.242188 16.40625 99.054688 16.40625 98.953125 16.40625 98.519531 16.503906 98.464844 16.996094 98.464844L18.457031 98.464844C18.265625 98.808594 18.1875 99.179688 18.1875 99.546875 18.1875 100.953125 19.316406 102.109375 21.15625 102.109375 22.585938 102.109375 23.6875 101.464844 23.6875 100.203125 23.6875 99.46875 23.265625 98.898438 22.886719 98.476563L22.886719 98.429688 23.65625 98.429688 23.65625 98.175781zM22.472656 98.464844C22.742188 98.851563 22.886719 99.15625 22.886719 99.679688 22.886719 100.628906 22.261719 101.140625 20.722656 101.140625 19.316406 101.140625 18.636719 100.503906 18.636719 99.566406 18.636719 98.878906 19.070313 98.554688 19.527344 98.464844L22.472656 98.464844" />
  <path d="M 473.554688 509.682812 L 510.664063 509.682812" transform="matrix(.1 0 0 -.1 0 271.48)" fill="none" stroke-width="7.97" stroke-linejoin="round" stroke="#000" stroke-miterlimit="10" />
  <path d="M 43.121094 220.542969 C 43.121094 218.246094 42.117188 216.917969 40.679688 216.917969 C 39.0625 216.917969 38.203125 218.390625 38.203125 220.507813 C 38.203125 222.484375 38.859375 224.203125 40.65625 224.203125 C 42.40625 224.203125 43.121094 222.453125 43.121094 220.542969 Z M 42.039063 220.609375 C 42.039063 222.75 41.539063 223.800781 40.65625 223.800781 C 39.761719 223.800781 39.273438 222.730469 39.273438 220.566406 C 39.273438 218.355469 39.761719 217.296875 40.644531 217.296875 C 41.558594 217.296875 42.039063 218.34375 42.039063 220.609375" />
  <path d="M 473.554688 715.542187 L 510.664063 715.542187" transform="matrix(.1 0 0 -.1 0 271.48)" fill="none" stroke-width="7.97" stroke-linejoin="round" stroke="#000" stroke-miterlimit="10" />
  <path d="M 42.550781 197.253906 L 42.730469 196.351563 L 39.671875 196.351563 L 38.984375 199.261719 L 39.117188 199.429688 C 39.273438 199.429688 39.328125 199.429688 39.617188 199.453125 C 41.15625 199.53125 42.027344 199.988281 42.027344 201.382813 C 42.027344 202.542969 41.324219 202.96875 40.53125 202.96875 C 39.820313 202.96875 39.449219 202.421875 39.003906 202.421875 C 38.726563 202.421875 38.558594 202.644531 38.558594 202.898438 C 38.558594 203.3125 38.984375 203.523438 39.839844 203.523438 C 41.617188 203.523438 42.84375 202.65625 42.84375 200.9375 C 42.84375 199.183594 41.46875 198.660156 40.152344 198.5625 L 39.628906 198.527344 L 39.929688 197.253906 L 42.550781 197.253906" />
  <path d="M 473.554688 921.401562 L 510.664063 921.401562" transform="matrix(.1 0 0 -.1 0 271.48)" fill="none" stroke-width="7.97" stroke-linejoin="round" stroke="#000" stroke-miterlimit="10" />
  <path d="M37.152344 182.878906L37.152344 182.566406C36.125 182.566406 35.714844 182.367188 35.714844 181.820313L35.714844 175.75 35.390625 175.75 33.226563 176.363281 33.226563 176.734375C33.570313 176.621094 34.140625 176.554688 34.363281 176.554688 34.640625 176.554688 34.730469 176.710938 34.730469 177.101563L34.730469 181.820313C34.730469 182.378906 34.339844 182.566406 33.292969 182.566406L33.292969 182.878906 37.152344 182.878906M43.121094 179.34375C43.121094 177.046875 42.117188 175.71875 40.679688 175.71875 39.0625 175.71875 38.203125 177.191406 38.203125 179.308594 38.203125 181.285156 38.859375 183.003906 40.65625 183.003906 42.40625 183.003906 43.121094 181.25 43.121094 179.34375zM42.039063 179.410156C42.039063 181.550781 41.539063 182.601563 40.65625 182.601563 39.761719 182.601563 39.273438 181.53125 39.273438 179.367188 39.273438 177.15625 39.761719 176.097656 40.644531 176.097656 41.558594 176.097656 42.039063 177.144531 42.039063 179.410156" />
  <path d="M 473.554688 1127.221875 L 510.664063 1127.221875" transform="matrix(.1 0 0 -.1 0 271.48)" fill="none" stroke-width="7.97" stroke-linejoin="round" stroke="#000" stroke-miterlimit="10" />
  <path d="M37.152344 162.28125L37.152344 161.96875C36.125 161.96875 35.714844 161.765625 35.714844 161.222656L35.714844 155.152344 35.390625 155.152344 33.226563 155.765625 33.226563 156.132813C33.570313 156.019531 34.140625 155.953125 34.363281 155.953125 34.640625 155.953125 34.730469 156.109375 34.730469 156.5L34.730469 161.222656C34.730469 161.777344 34.339844 161.96875 33.292969 161.96875L33.292969 162.28125 37.152344 162.28125M42.550781 156.15625L42.730469 155.253906 39.671875 155.253906 38.984375 158.164063 39.117188 158.328125C39.273438 158.328125 39.328125 158.328125 39.617188 158.351563 41.15625 158.433594 42.027344 158.886719 42.027344 160.28125 42.027344 161.441406 41.324219 161.867188 40.53125 161.867188 39.820313 161.867188 39.449219 161.320313 39.003906 161.320313 38.726563 161.320313 38.558594 161.542969 38.558594 161.800781 38.558594 162.214844 38.984375 162.425781 39.839844 162.425781 41.617188 162.425781 42.84375 161.554688 42.84375 159.835938 42.84375 158.085938 41.46875 157.5625 40.152344 157.460938L39.628906 157.425781 39.929688 156.15625 42.550781 156.15625" />
  <path d="M 473.554688 1333.08125 L 510.664063 1333.08125" transform="matrix(.1 0 0 -.1 0 271.48)" fill="none" stroke-width="7.97" stroke-linejoin="round" stroke="#000" stroke-miterlimit="10" />
  <path d="M37.578125 139.894531L37.253906 139.894531C36.996094 140.5625 36.851563 140.800781 36.257813 140.800781L34.710938 140.800781 33.929688 140.832031 33.929688 140.777344 35.402344 139.382813C36.585938 138.1875 37.21875 137.417969 37.21875 136.425781 37.21875 135.253906 36.335938 134.496094 35.078125 134.496094 33.996094 134.496094 33.238281 135.121094 32.890625 136.203125L33.160156 136.3125C33.570313 135.476563 34.0625 135.222656 34.789063 135.222656 35.648438 135.222656 36.179688 135.757813 36.179688 136.59375 36.179688 137.765625 35.625 138.46875 34.519531 139.605469L32.824219 141.300781 32.824219 141.679688 37.21875 141.679688 37.578125 139.894531M43.121094 138.144531C43.121094 135.847656 42.117188 134.515625 40.679688 134.515625 39.0625 134.515625 38.203125 135.992188 38.203125 138.109375 38.203125 140.085938 38.859375 141.804688 40.65625 141.804688 42.40625 141.804688 43.121094 140.050781 43.121094 138.144531zM42.039063 138.210938C42.039063 140.351563 41.539063 141.398438 40.65625 141.398438 39.761719 141.398438 39.273438 140.328125 39.273438 138.164063 39.273438 135.957031 39.761719 134.898438 40.644531 134.898438 41.558594 134.898438 42.039063 135.945313 42.039063 138.210938" />
  <path d="M 473.554688 1538.901562 L 510.664063 1538.901562" transform="matrix(.1 0 0 -.1 0 271.48)" fill="none" stroke-width="7.97" stroke-linejoin="round" stroke="#000" stroke-miterlimit="10" />
  <path d="M37.578125 119.296875L37.253906 119.296875C36.996094 119.964844 36.851563 120.199219 36.257813 120.199219L34.710938 120.199219 33.929688 120.230469 33.929688 120.175781 35.402344 118.78125C36.585938 117.589844 37.21875 116.820313 37.21875 115.824219 37.21875 114.652344 36.335938 113.894531 35.078125 113.894531 33.996094 113.894531 33.238281 114.519531 32.890625 115.601563L33.160156 115.714844C33.570313 114.878906 34.0625 114.621094 34.789063 114.621094 35.648438 114.621094 36.179688 115.15625 36.179688 115.992188 36.179688 117.164063 35.625 117.867188 34.519531 119.003906L32.824219 120.699219 32.824219 121.078125 37.21875 121.078125 37.578125 119.296875M42.550781 114.953125L42.730469 114.050781 39.671875 114.050781 38.984375 116.964844 39.117188 117.128906C39.273438 117.128906 39.328125 117.128906 39.617188 117.152344 41.15625 117.230469 42.027344 117.6875 42.027344 119.082031 42.027344 120.242188 41.324219 120.667969 40.53125 120.667969 39.820313 120.667969 39.449219 120.121094 39.003906 120.121094 38.726563 120.121094 38.558594 120.34375 38.558594 120.601563 38.558594 121.011719 38.984375 121.226563 39.839844 121.226563 41.617188 121.226563 42.84375 120.355469 42.84375 118.636719 42.84375 116.886719 41.46875 116.359375 40.152344 116.261719L39.628906 116.226563 39.929688 114.953125 42.550781 114.953125" />
  <path d="M 473.554688 1744.760937 L 510.664063 1744.760937" transform="matrix(.1 0 0 -.1 0 271.48)" fill="none" stroke-width="7.97" stroke-linejoin="round" stroke="#000" stroke-miterlimit="10" />
  <path d="M33.359375 95.023438C33.738281 94.433594 34.152344 94.121094 34.820313 94.121094 35.511719 94.121094 35.960938 94.5 35.960938 95.15625 35.960938 96.0625 35.167969 96.675781 34.40625 96.675781L34.195313 96.675781 34.195313 97.097656 34.417969 97.097656C35.492188 97.097656 36.4375 97.757813 36.4375 98.75 36.4375 99.84375 35.757813 100.167969 35.054688 100.167969 34.789063 100.167969 34.632813 100.121094 34.152344 99.878906 33.761719 99.675781 33.671875 99.621094 33.492188 99.621094 33.203125 99.621094 33.058594 99.878906 33.058594 100.109375 33.058594 100.402344 33.304688 100.726563 34.308594 100.726563 35.9375 100.726563 37.351563 99.945313 37.351563 98.414063 37.351563 97.421875 36.605469 96.832031 35.714844 96.550781L35.714844 96.519531C36.414063 96.070313 36.917969 95.660156 36.917969 94.890625 36.917969 94.042969 36.257813 93.394531 35.121094 93.394531 34.207031 93.394531 33.515625 93.90625 33.101563 94.878906L33.359375 95.023438M43.121094 97.042969C43.121094 94.746094 42.117188 93.417969 40.679688 93.417969 39.0625 93.417969 38.203125 94.890625 38.203125 97.011719 38.203125 98.984375 38.859375 100.703125 40.65625 100.703125 42.40625 100.703125 43.121094 98.953125 43.121094 97.042969zM42.039063 97.109375C42.039063 99.253906 41.539063 100.300781 40.65625 100.300781 39.761719 100.300781 39.273438 99.230469 39.273438 97.066406 39.273438 94.855469 39.761719 93.796875 40.644531 93.796875 41.558594 93.796875 42.039063 94.847656 42.039063 97.109375" />
  <path d="M 473.554688 1950.58125 L 510.664063 1950.58125" transform="matrix(.1 0 0 -.1 0 271.48)" fill="none" stroke-width="7.97" stroke-linejoin="round" stroke="#000" stroke-miterlimit="10" />
  <path d="M33.359375 74.425781C33.738281 73.832031 34.152344 73.519531 34.820313 73.519531 35.511719 73.519531 35.960938 73.898438 35.960938 74.558594 35.960938 75.460938 35.167969 76.074219 34.40625 76.074219L34.195313 76.074219 34.195313 76.5 34.417969 76.5C35.492188 76.5 36.4375 77.15625 36.4375 78.148438 36.4375 79.242188 35.757813 79.566406 35.054688 79.566406 34.789063 79.566406 34.632813 79.523438 34.152344 79.277344 33.761719 79.078125 33.671875 79.019531 33.492188 79.019531 33.203125 79.019531 33.058594 79.277344 33.058594 79.511719 33.058594 79.800781 33.304688 80.125 34.308594 80.125 35.9375 80.125 37.351563 79.34375 37.351563 77.816406 37.351563 76.820313 36.605469 76.230469 35.714844 75.953125L35.714844 75.917969C36.414063 75.472656 36.917969 75.058594 36.917969 74.289063 36.917969 73.441406 36.257813 72.796875 35.121094 72.796875 34.207031 72.796875 33.515625 73.308594 33.101563 74.277344L33.359375 74.425781M42.550781 73.855469L42.730469 72.953125 39.671875 72.953125 38.984375 75.863281 39.117188 76.03125C39.273438 76.03125 39.328125 76.03125 39.617188 76.054688 41.15625 76.132813 42.027344 76.589844 42.027344 77.984375 42.027344 79.140625 41.324219 79.566406 40.53125 79.566406 39.820313 79.566406 39.449219 79.019531 39.003906 79.019531 38.726563 79.019531 38.558594 79.242188 38.558594 79.5 38.558594 79.914063 38.984375 80.125 39.839844 80.125 41.617188 80.125 42.84375 79.253906 42.84375 77.535156 42.84375 75.785156 41.46875 75.261719 40.152344 75.160156L39.628906 75.128906 39.929688 73.855469 42.550781 73.855469" />
  <path d="M 473.554688 2156.440625 L 510.664063 2156.440625" transform="matrix(.1 0 0 -.1 0 271.48)" fill="none" stroke-width="7.97" stroke-linejoin="round" stroke="#000" stroke-miterlimit="10" />
  <path d="M37.765625 57.617188L37.765625 56.847656 36.628906 56.847656 36.628906 52.183594 35.949219 52.183594 32.546875 56.914063 32.546875 57.617188 35.636719 57.617188 35.636719 59.378906 36.628906 59.378906 36.628906 57.617188zM35.636719 56.847656L33.160156 56.847656 33.160156 56.804688 35.589844 53.398438 35.636719 53.398438 35.636719 56.847656M43.121094 55.84375C43.121094 53.546875 42.117188 52.21875 40.679688 52.21875 39.0625 52.21875 38.203125 53.691406 38.203125 55.808594 38.203125 57.785156 38.859375 59.503906 40.65625 59.503906 42.40625 59.503906 43.121094 57.753906 43.121094 55.84375zM42.039063 55.910156C42.039063 58.050781 41.539063 59.101563 40.65625 59.101563 39.761719 59.101563 39.273438 58.03125 39.273438 55.867188 39.273438 53.65625 39.761719 52.597656 40.644531 52.597656 41.558594 52.597656 42.039063 53.644531 42.039063 55.910156M70.347656 232.359375L70.257813 230.351563 64.089844 230.351563 63.96875 232.359375 64.3125 232.359375C64.546875 231.140625 64.703125 230.851563 65.929688 230.851563L66.644531 230.851563 66.644531 236.21875C66.644531 237.234375 66.488281 237.34375 65.550781 237.34375L65.550781 237.679688 68.789063 237.679688 68.789063 237.34375C67.828125 237.34375 67.683594 237.234375 67.683594 236.21875L67.683594 230.851563 68.386719 230.851563C69.625 230.851563 69.757813 231.140625 70.003906 232.359375L70.347656 232.359375M72.640625 233.675781C73.1875 233.171875 73.589844 232.984375 74.023438 232.984375 74.929688 232.984375 75.050781 233.753906 75.050781 234.667969L75.050781 236.597656C75.050781 237.132813 75.007813 237.355469 74.238281 237.355469L74.238281 237.679688 76.804688 237.679688 76.804688 237.355469C76.101563 237.355469 75.976563 237.144531 75.976563 236.554688L75.976563 234.332031C75.976563 233.417969 75.765625 232.269531 74.484375 232.269531 73.890625 232.269531 73.378906 232.523438 72.675781 233.183594L72.640625 233.183594 72.640625 229.804688 72.339844 229.804688 70.84375 230.195313 70.84375 230.507813C70.84375 230.507813 70.992188 230.484375 71.167969 230.484375 71.46875 230.484375 71.714844 230.539063 71.714844 230.929688L71.714844 236.640625C71.714844 237.265625 71.515625 237.355469 70.933594 237.355469L70.933594 237.679688 73.46875 237.679688 73.46875 237.355469C72.695313 237.355469 72.640625 237.179688 72.640625 236.597656L72.640625 233.675781M83.023438 237.179688L82.914063 237.179688C82.378906 237.179688 82.242188 237.101563 82.242188 236.441406L82.242188 232.347656 81.976563 232.347656 80.414063 232.515625 80.414063 232.828125C81.128906 232.828125 81.316406 232.882813 81.316406 233.472656L81.316406 236.40625C80.871094 236.796875 80.515625 237.078125 79.945313 237.078125 79.367188 237.078125 78.941406 236.742188 78.941406 235.605469L78.941406 232.347656 78.695313 232.347656 77.257813 232.515625 77.257813 232.828125C77.859375 232.835938 78.015625 232.882813 78.015625 233.484375L78.015625 235.75C78.015625 237.265625 78.550781 237.789063 79.476563 237.789063 80.191406 237.789063 80.714844 237.457031 81.304688 236.875L81.363281 236.875 81.363281 237.734375 81.609375 237.734375 83.023438 237.476563 83.023438 237.179688M85.441406 232.300781L85.171875 232.300781 83.789063 232.636719 83.789063 232.949219C83.789063 232.949219 83.914063 232.925781 84.136719 232.925781 84.539063 232.925781 84.539063 233.128906 84.539063 233.53125L84.539063 236.597656C84.539063 237.222656 84.460938 237.355469 83.722656 237.355469L83.722656 237.679688 86.511719 237.679688 86.511719 237.355469C85.675781 237.355469 85.464844 237.246094 85.464844 236.542969L85.464844 234C85.730469 233.550781 86.089844 233.082031 86.34375 233.082031 86.480469 233.082031 86.703125 233.460938 87.070313 233.460938 87.316406 233.460938 87.5625 233.285156 87.5625 232.859375 87.5625 232.480469 87.351563 232.234375 86.914063 232.234375 86.378906 232.234375 86.042969 232.625 85.476563 233.453125L85.441406 233.453125 85.441406 232.300781M88.132813 235.851563L88.167969 237.769531 88.402344 237.769531 88.636719 237.511719 88.660156 237.511719C88.949219 237.632813 89.285156 237.804688 89.929688 237.804688 90.9375 237.804688 91.804688 237.398438 91.804688 236.351563 91.804688 235.527344 91.257813 235.113281 90.242188 234.578125 89.304688 234.097656 88.9375 233.820313 88.9375 233.382813 88.9375 232.882813 89.328125 232.648438 89.84375 232.648438 90.523438 232.648438 90.9375 232.972656 91.179688 234.03125L91.480469 234.03125 91.449219 232.324219 91.226563 232.324219 91.035156 232.558594 91.023438 232.558594C90.746094 232.425781 90.410156 232.269531 89.851563 232.269531 88.894531 232.269531 88.148438 232.757813 88.148438 233.675781 88.148438 234.5 88.601563 234.890625 89.617188 235.402344 90.65625 235.917969 90.867188 236.128906 90.867188 236.652344 90.867188 237.179688 90.46875 237.390625 89.910156 237.390625 89.082031 237.390625 88.660156 237 88.425781 235.851563L88.132813 235.851563M97.835938 237.476563L97.835938 237.179688 97.601563 237.179688C97.1875 237.179688 97.042969 237.066406 97.042969 236.484375L97.042969 229.804688 96.742188 229.804688 95.335938 230.195313 95.335938 230.507813C95.335938 230.507813 95.523438 230.484375 95.625 230.484375 96.0625 230.484375 96.117188 230.585938 96.117188 231.074219L96.117188 232.535156C95.769531 232.347656 95.402344 232.269531 95.035156 232.269531 93.628906 232.269531 92.46875 233.394531 92.46875 235.234375 92.46875 236.664063 93.117188 237.769531 94.375 237.769531 95.113281 237.769531 95.679688 237.34375 96.105469 236.964844L96.148438 236.964844 96.148438 237.734375 96.40625 237.734375zM96.117188 236.554688C95.726563 236.820313 95.425781 236.964844 94.898438 236.964844 93.953125 236.964844 93.4375 236.339844 93.4375 234.800781 93.4375 233.394531 94.074219 232.714844 95.011719 232.714844 95.703125 232.714844 96.027344 233.148438 96.117188 233.609375L96.117188 236.554688M101.535156 236.988281C101.601563 237.476563 101.714844 237.734375 102.207031 237.734375 102.773438 237.734375 103.042969 237.5 103.410156 236.964844L103.242188 236.789063C103.089844 236.953125 102.929688 237.066406 102.71875 237.066406 102.484375 237.066406 102.382813 236.976563 102.382813 236.519531L102.382813 233.988281C102.382813 232.828125 101.925781 232.269531 100.710938 232.269531 99.496094 232.269531 98.746094 232.871094 98.746094 233.496094 98.746094 233.863281 98.992188 234.03125 99.214844 234.03125 99.527344 234.03125 99.707031 233.863281 99.707031 233.519531 99.707031 232.847656 99.820313 232.613281 100.453125 232.613281 101.121094 232.613281 101.457031 232.984375 101.457031 233.953125L101.457031 234.445313C100.496094 234.746094 98.523438 235.035156 98.523438 236.507813 98.523438 237.222656 98.992188 237.757813 99.851563 237.757813 100.566406 237.757813 100.96875 237.445313 101.492188 236.988281zM101.457031 236.652344C101.078125 236.964844 100.675781 237.144531 100.308594 237.144531 99.828125 237.144531 99.507813 236.796875 99.507813 236.242188 99.507813 235.371094 100.441406 235.070313 101.457031 234.8125L101.457031 236.652344" />
  <path d="M108.800781 232.402344L106.902344 232.402344 106.902344 232.726563C107.273438 232.726563 107.527344 232.78125 107.527344 233.003906 107.527344 233.09375 107.496094 233.195313 107.472656 233.285156L106.402344 236.554688 106.324219 236.554688 106.167969 235.972656 105.074219 233.519531C105.007813 233.363281 104.917969 233.171875 104.917969 233.039063 104.917969 232.835938 105.050781 232.738281 105.554688 232.738281L105.554688 232.402344 103.164063 232.402344 103.164063 232.726563C103.566406 232.726563 103.722656 232.871094 103.835938 233.128906L105.476563 236.710938C105.609375 237.011719 105.8125 237.476563 105.8125 237.625 105.8125 237.945313 105.175781 239.332031 104.816406 239.332031 104.539063 239.332031 104.304688 239.085938 103.914063 239.085938 103.613281 239.085938 103.390625 239.230469 103.390625 239.566406 103.390625 239.988281 103.714844 240.144531 104.214844 240.144531 105.117188 240.144531 105.664063 239.566406 106.289063 237.925781L108.03125 233.351563C108.1875 232.914063 108.351563 232.726563 108.800781 232.726563L108.800781 232.402344M151.503906 232.179688L151.4375 230.351563 145.503906 230.351563 145.503906 230.683594C146.304688 230.683594 146.585938 230.839844 146.585938 231.609375L146.585938 236.386719C146.585938 237.210938 146.40625 237.34375 145.503906 237.34375L145.503906 237.679688 148.769531 237.679688 148.769531 237.34375C147.898438 237.34375 147.609375 237.210938 147.609375 236.453125L147.609375 234.109375 148.925781 234.109375C149.886719 234.109375 150.109375 234.253906 150.109375 235.15625L150.488281 235.15625 150.488281 232.570313 150.109375 232.570313C150.109375 233.472656 149.886719 233.675781 148.925781 233.675781L147.609375 233.675781 147.609375 230.851563 149.382813 230.851563C150.84375 230.851563 150.945313 231.121094 151.148438 232.179688L151.503906 232.179688M153.542969 232.300781L153.273438 232.300781 151.890625 232.636719 151.890625 232.949219C151.890625 232.949219 152.011719 232.925781 152.234375 232.925781 152.636719 232.925781 152.636719 233.128906 152.636719 233.53125L152.636719 236.597656C152.636719 237.222656 152.558594 237.355469 151.824219 237.355469L151.824219 237.679688 154.613281 237.679688 154.613281 237.355469C153.777344 237.355469 153.5625 237.246094 153.5625 236.542969L153.5625 234C153.832031 233.550781 154.1875 233.082031 154.445313 233.082031 154.578125 233.082031 154.800781 233.460938 155.171875 233.460938 155.414063 233.460938 155.660156 233.285156 155.660156 232.859375 155.660156 232.480469 155.449219 232.234375 155.015625 232.234375 154.476563 232.234375 154.144531 232.625 153.574219 233.453125L153.542969 233.453125 153.542969 232.300781M157.417969 229.949219C157.027344 229.949219 156.78125 230.238281 156.78125 230.574219 156.78125 230.917969 157.039063 231.210938 157.417969 231.210938 157.808594 231.210938 158.054688 230.917969 158.054688 230.574219 158.054688 230.238281 157.808594 229.949219 157.417969 229.949219zM158.667969 237.367188C157.921875 237.367188 157.863281 237.199219 157.863281 236.554688L157.863281 232.300781 157.574219 232.300781 156.167969 232.613281 156.167969 232.9375C156.167969 232.9375 156.289063 232.914063 156.445313 232.914063 156.769531 232.914063 156.9375 232.960938 156.9375 233.441406L156.9375 236.554688C156.9375 237.1875 156.90625 237.367188 156.15625 237.367188L156.15625 237.679688 158.667969 237.679688 158.667969 237.367188M164.734375 237.476563L164.734375 237.179688 164.5 237.179688C164.089844 237.179688 163.941406 237.066406 163.941406 236.484375L163.941406 229.804688 163.640625 229.804688 162.234375 230.195313 162.234375 230.507813C162.234375 230.507813 162.425781 230.484375 162.523438 230.484375 162.960938 230.484375 163.015625 230.585938 163.015625 231.074219L163.015625 232.535156C162.671875 232.347656 162.300781 232.269531 161.933594 232.269531 160.527344 232.269531 159.367188 233.394531 159.367188 235.234375 159.367188 236.664063 160.015625 237.769531 161.277344 237.769531 162.011719 237.769531 162.582031 237.34375 163.003906 236.964844L163.050781 236.964844 163.050781 237.734375 163.304688 237.734375zM163.015625 236.554688C162.628906 236.820313 162.324219 236.964844 161.800781 236.964844 160.851563 236.964844 160.339844 236.339844 160.339844 234.800781 160.339844 233.394531 160.976563 232.714844 161.914063 232.714844 162.601563 232.714844 162.925781 233.148438 163.015625 233.609375L163.015625 236.554688M168.4375 236.988281C168.503906 237.476563 168.613281 237.734375 169.105469 237.734375 169.675781 237.734375 169.941406 237.5 170.3125 236.964844L170.144531 236.789063C169.988281 236.953125 169.832031 237.066406 169.617188 237.066406 169.382813 237.066406 169.285156 236.976563 169.285156 236.519531L169.285156 233.988281C169.285156 232.828125 168.828125 232.269531 167.609375 232.269531 166.394531 232.269531 165.648438 232.871094 165.648438 233.496094 165.648438 233.863281 165.890625 234.03125 166.117188 234.03125 166.429688 234.03125 166.605469 233.863281 166.605469 233.519531 166.605469 232.847656 166.71875 232.613281 167.355469 232.613281 168.023438 232.613281 168.359375 232.984375 168.359375 233.953125L168.359375 234.445313C167.398438 234.746094 165.421875 235.035156 165.421875 236.507813 165.421875 237.222656 165.890625 237.757813 166.753906 237.757813 167.464844 237.757813 167.867188 237.445313 168.390625 236.988281zM168.359375 236.652344C167.976563 236.964844 167.578125 237.144531 167.210938 237.144531 166.730469 237.144531 166.40625 236.796875 166.40625 236.242188 166.40625 235.371094 167.34375 235.070313 168.359375 234.8125L168.359375 236.652344" />
  <path d="M175.699219 232.402344L173.804688 232.402344 173.804688 232.726563C174.171875 232.726563 174.429688 232.78125 174.429688 233.003906 174.429688 233.09375 174.394531 233.195313 174.371094 233.285156L173.300781 236.554688 173.222656 236.554688 173.066406 235.972656 171.972656 233.519531C171.90625 233.363281 171.816406 233.171875 171.816406 233.039063 171.816406 232.835938 171.953125 232.738281 172.453125 232.738281L172.453125 232.402344 170.066406 232.402344 170.066406 232.726563C170.46875 232.726563 170.621094 232.871094 170.734375 233.128906L172.375 236.710938C172.507813 237.011719 172.710938 237.476563 172.710938 237.625 172.710938 237.945313 172.074219 239.332031 171.71875 239.332031 171.4375 239.332031 171.203125 239.085938 170.8125 239.085938 170.511719 239.085938 170.289063 239.230469 170.289063 239.566406 170.289063 239.988281 170.613281 240.144531 171.113281 240.144531 172.019531 240.144531 172.566406 239.566406 173.191406 237.925781L174.929688 233.351563C175.085938 232.914063 175.253906 232.726563 175.699219 232.726563L175.699219 232.402344M218.507813 232.46875L218.429688 230.238281 218.140625 230.238281C218.085938 230.472656 217.972656 230.5625 217.796875 230.5625 217.527344 230.5625 217.28125 230.214844 216.265625 230.214844 215.105469 230.226563 214.148438 230.851563 214.148438 232.023438 214.148438 233.195313 215.050781 233.730469 215.941406 234.242188 216.859375 234.765625 217.796875 235.15625 217.796875 236.140625 217.796875 236.988281 217.269531 237.324219 216.433594 237.324219 215.296875 237.335938 214.726563 236.976563 214.335938 235.4375L213.992188 235.4375 214.089844 237.847656 214.4375 237.847656C214.449219 237.625 214.582031 237.476563 214.738281 237.476563 214.996094 237.476563 215.429688 237.8125 216.589844 237.8125 217.882813 237.8125 218.855469 237.109375 218.855469 235.816406 218.855469 234.488281 217.75 233.988281 216.757813 233.429688 215.921875 232.949219 215.117188 232.546875 215.117188 231.710938 215.117188 231.019531 215.554688 230.664063 216.3125 230.664063 217.4375 230.652344 217.859375 231.242188 218.171875 232.46875L218.507813 232.46875M222.734375 236.988281C222.804688 237.476563 222.914063 237.734375 223.40625 237.734375 223.976563 237.734375 224.242188 237.5 224.609375 236.964844L224.445313 236.789063C224.289063 236.953125 224.132813 237.066406 223.917969 237.066406 223.683594 237.066406 223.585938 236.976563 223.585938 236.519531L223.585938 233.988281C223.585938 232.828125 223.128906 232.269531 221.910156 232.269531 220.695313 232.269531 219.945313 232.871094 219.945313 233.496094 219.945313 233.863281 220.191406 234.03125 220.414063 234.03125 220.726563 234.03125 220.90625 233.863281 220.90625 233.519531 220.90625 232.847656 221.019531 232.613281 221.65625 232.613281 222.324219 232.613281 222.65625 232.984375 222.65625 233.953125L222.65625 234.445313C221.699219 234.746094 219.722656 235.035156 219.722656 236.507813 219.722656 237.222656 220.191406 237.757813 221.050781 237.757813 221.765625 237.757813 222.167969 237.445313 222.691406 236.988281zM222.65625 236.652344C222.277344 236.964844 221.878906 237.144531 221.507813 237.144531 221.03125 237.144531 220.707031 236.796875 220.707031 236.242188 220.707031 235.371094 221.640625 235.070313 222.65625 234.8125L222.65625 236.652344M227.867188 236.675781C227.589844 236.988281 227.445313 237.132813 227.089844 237.132813 226.652344 237.132813 226.554688 236.867188 226.554688 236.074219L226.554688 232.871094 227.8125 232.871094 227.8125 232.402344 226.554688 232.402344 226.5625 230.875 226.273438 230.875C225.871094 231.820313 225.539063 232.289063 225.011719 232.613281L225.011719 232.871094 225.628906 232.871094 225.628906 236.386719C225.628906 237.390625 225.949219 237.789063 226.695313 237.789063 227.410156 237.789063 227.644531 237.457031 228.082031 236.855469L227.867188 236.675781M234.226563 237.179688L234.113281 237.179688C233.578125 237.179688 233.445313 237.101563 233.445313 236.441406L233.445313 232.347656 233.175781 232.347656 231.613281 232.515625 231.613281 232.828125C232.328125 232.828125 232.515625 232.882813 232.515625 233.472656L232.515625 236.40625C232.070313 236.796875 231.714844 237.078125 231.144531 237.078125 230.566406 237.078125 230.140625 236.742188 230.140625 235.605469L230.140625 232.347656 229.894531 232.347656 228.457031 232.515625 228.457031 232.828125C229.058594 232.835938 229.214844 232.882813 229.214844 233.484375L229.214844 235.75C229.214844 237.265625 229.75 237.789063 230.675781 237.789063 231.390625 237.789063 231.914063 237.457031 232.507813 236.875L232.5625 236.875 232.5625 237.734375 232.808594 237.734375 234.226563 237.476563 234.226563 237.179688M236.640625 232.300781L236.371094 232.300781 234.992188 232.636719 234.992188 232.949219C234.992188 232.949219 235.113281 232.925781 235.335938 232.925781 235.738281 232.925781 235.738281 233.128906 235.738281 233.53125L235.738281 236.597656C235.738281 237.222656 235.660156 237.355469 234.921875 237.355469L234.921875 237.679688 237.714844 237.679688 237.714844 237.355469C236.878906 237.355469 236.664063 237.246094 236.664063 236.542969L236.664063 234C236.929688 233.550781 237.289063 233.082031 237.546875 233.082031 237.679688 233.082031 237.902344 233.460938 238.269531 233.460938 238.515625 233.460938 238.761719 233.285156 238.761719 232.859375 238.761719 232.480469 238.550781 232.234375 238.113281 232.234375 237.578125 232.234375 237.242188 232.625 236.675781 233.453125L236.640625 233.453125 236.640625 232.300781M244.433594 237.476563L244.433594 237.179688 244.199219 237.179688C243.789063 237.179688 243.640625 237.066406 243.640625 236.484375L243.640625 229.804688 243.339844 229.804688 241.9375 230.195313 241.9375 230.507813C241.9375 230.507813 242.125 230.484375 242.226563 230.484375 242.660156 230.484375 242.714844 230.585938 242.714844 231.074219L242.714844 232.535156C242.371094 232.347656 242.003906 232.269531 241.632813 232.269531 240.226563 232.269531 239.070313 233.394531 239.070313 235.234375 239.070313 236.664063 239.714844 237.769531 240.976563 237.769531 241.714844 237.769531 242.28125 237.34375 242.703125 236.964844L242.75 236.964844 242.75 237.734375 243.007813 237.734375zM242.714844 236.554688C242.328125 236.820313 242.023438 236.964844 241.5 236.964844 240.550781 236.964844 240.039063 236.339844 240.039063 234.800781 240.039063 233.394531 240.675781 232.714844 241.613281 232.714844 242.304688 232.714844 242.628906 233.148438 242.714844 233.609375L242.714844 236.554688M248.136719 236.988281C248.203125 237.476563 248.3125 237.734375 248.804688 237.734375 249.375 237.734375 249.640625 237.5 250.011719 236.964844L249.84375 236.789063C249.6875 236.953125 249.53125 237.066406 249.320313 237.066406 249.085938 237.066406 248.984375 236.976563 248.984375 236.519531L248.984375 233.988281C248.984375 232.828125 248.527344 232.269531 247.3125 232.269531 246.09375 232.269531 245.347656 232.871094 245.347656 233.496094 245.347656 233.863281 245.59375 234.03125 245.816406 234.03125 246.128906 234.03125 246.304688 233.863281 246.304688 233.519531 246.304688 232.847656 246.417969 232.613281 247.054688 232.613281 247.722656 232.613281 248.058594 232.984375 248.058594 233.953125L248.058594 234.445313C247.097656 234.746094 245.121094 235.035156 245.121094 236.507813 245.121094 237.222656 245.59375 237.757813 246.453125 237.757813 247.164063 237.757813 247.566406 237.445313 248.09375 236.988281zM248.058594 236.652344C247.679688 236.964844 247.277344 237.144531 246.910156 237.144531 246.429688 237.144531 246.105469 236.796875 246.105469 236.242188 246.105469 235.371094 247.042969 235.070313 248.058594 234.8125L248.058594 236.652344" />
  <path d="M255.398438 232.402344L253.503906 232.402344 253.503906 232.726563C253.871094 232.726563 254.128906 232.78125 254.128906 233.003906 254.128906 233.09375 254.09375 233.195313 254.070313 233.285156L253.003906 236.554688 252.921875 236.554688 252.765625 235.972656 251.671875 233.519531C251.605469 233.363281 251.515625 233.171875 251.515625 233.039063 251.515625 232.835938 251.652344 232.738281 252.152344 232.738281L252.152344 232.402344 249.765625 232.402344 249.765625 232.726563C250.167969 232.726563 250.324219 232.871094 250.4375 233.128906L252.074219 236.710938C252.210938 237.011719 252.410156 237.476563 252.410156 237.625 252.410156 237.945313 251.773438 239.332031 251.417969 239.332031 251.140625 239.332031 250.90625 239.085938 250.515625 239.085938 250.214844 239.085938 249.988281 239.230469 249.988281 239.566406 249.988281 239.988281 250.3125 240.144531 250.8125 240.144531 251.71875 240.144531 252.265625 239.566406 252.890625 237.925781L254.628906 233.351563C254.785156 232.914063 254.953125 232.726563 255.398438 232.726563L255.398438 232.402344M295.910156 232.46875L295.832031 230.238281 295.539063 230.238281C295.484375 230.472656 295.371094 230.5625 295.195313 230.5625 294.925781 230.5625 294.679688 230.214844 293.664063 230.214844 292.507813 230.226563 291.546875 230.851563 291.546875 232.023438 291.546875 233.195313 292.449219 233.730469 293.34375 234.242188 294.257813 234.765625 295.195313 235.15625 295.195313 236.140625 295.195313 236.988281 294.671875 237.324219 293.835938 237.324219 292.695313 237.335938 292.128906 236.976563 291.734375 235.4375L291.390625 235.4375 291.492188 237.847656 291.839844 237.847656C291.847656 237.625 291.980469 237.476563 292.136719 237.476563 292.394531 237.476563 292.828125 237.8125 293.992188 237.8125 295.285156 237.8125 296.253906 237.109375 296.253906 235.816406 296.253906 234.488281 295.148438 233.988281 294.15625 233.429688 293.320313 232.949219 292.515625 232.546875 292.515625 231.710938 292.515625 231.019531 292.953125 230.664063 293.710938 230.664063 294.839844 230.652344 295.261719 231.242188 295.574219 232.46875L295.910156 232.46875M302.726563 237.179688L302.613281 237.179688C302.078125 237.179688 301.945313 237.101563 301.945313 236.441406L301.945313 232.347656 301.675781 232.347656 300.113281 232.515625 300.113281 232.828125C300.828125 232.828125 301.015625 232.882813 301.015625 233.472656L301.015625 236.40625C300.570313 236.796875 300.214844 237.078125 299.644531 237.078125 299.066406 237.078125 298.640625 236.742188 298.640625 235.605469L298.640625 232.347656 298.394531 232.347656 296.957031 232.515625 296.957031 232.828125C297.558594 232.835938 297.714844 232.882813 297.714844 233.484375L297.714844 235.75C297.714844 237.265625 298.25 237.789063 299.175781 237.789063 299.890625 237.789063 300.414063 237.457031 301.007813 236.875L301.0625 236.875 301.0625 237.734375 301.308594 237.734375 302.726563 237.476563 302.726563 237.179688M308.464844 234.253906C308.464844 232.972656 307.984375 232.269531 306.972656 232.269531 306.269531 232.269531 305.777344 232.671875 305.175781 233.207031L305.128906 233.207031 305.140625 232.300781 304.882813 232.300781 303.46875 232.625 303.46875 232.949219C303.46875 232.949219 303.578125 232.925781 303.769531 232.925781 304.070313 232.925781 304.238281 233.015625 304.238281 233.417969L304.238281 236.554688C304.238281 237.179688 304.203125 237.367188 303.457031 237.367188L303.457031 237.679688 306.011719 237.679688 306.011719 237.367188C305.207031 237.367188 305.164063 237.179688 305.164063 236.554688L305.164063 233.6875C305.496094 233.382813 305.910156 232.984375 306.515625 232.984375 307.015625 232.984375 307.539063 233.195313 307.539063 234.535156L307.539063 236.554688C307.539063 237.179688 307.507813 237.367188 306.714844 237.367188L306.714844 237.679688 309.292969 237.679688 309.292969 237.367188C308.542969 237.367188 308.464844 237.179688 308.464844 236.554688L308.464844 234.253906M315.234375 237.476563L315.234375 237.179688 315 237.179688C314.589844 237.179688 314.441406 237.066406 314.441406 236.484375L314.441406 229.804688 314.140625 229.804688 312.734375 230.195313 312.734375 230.507813C312.734375 230.507813 312.925781 230.484375 313.023438 230.484375 313.460938 230.484375 313.515625 230.585938 313.515625 231.074219L313.515625 232.535156C313.171875 232.347656 312.800781 232.269531 312.433594 232.269531 311.027344 232.269531 309.867188 233.394531 309.867188 235.234375 309.867188 236.664063 310.515625 237.769531 311.777344 237.769531 312.511719 237.769531 313.082031 237.34375 313.503906 236.964844L313.550781 236.964844 313.550781 237.734375 313.804688 237.734375zM313.515625 236.554688C313.128906 236.820313 312.824219 236.964844 312.300781 236.964844 311.351563 236.964844 310.839844 236.339844 310.839844 234.800781 310.839844 233.394531 311.476563 232.714844 312.414063 232.714844 313.101563 232.714844 313.425781 233.148438 313.515625 233.609375L313.515625 236.554688M318.9375 236.988281C319.003906 237.476563 319.113281 237.734375 319.605469 237.734375 320.175781 237.734375 320.441406 237.5 320.8125 236.964844L320.644531 236.789063C320.488281 236.953125 320.332031 237.066406 320.117188 237.066406 319.882813 237.066406 319.785156 236.976563 319.785156 236.519531L319.785156 233.988281C319.785156 232.828125 319.328125 232.269531 318.109375 232.269531 316.894531 232.269531 316.148438 232.871094 316.148438 233.496094 316.148438 233.863281 316.390625 234.03125 316.617188 234.03125 316.929688 234.03125 317.105469 233.863281 317.105469 233.519531 317.105469 232.847656 317.21875 232.613281 317.855469 232.613281 318.523438 232.613281 318.859375 232.984375 318.859375 233.953125L318.859375 234.445313C317.898438 234.746094 315.921875 235.035156 315.921875 236.507813 315.921875 237.222656 316.390625 237.757813 317.253906 237.757813 317.964844 237.757813 318.367188 237.445313 318.890625 236.988281zM318.859375 236.652344C318.476563 236.964844 318.078125 237.144531 317.710938 237.144531 317.230469 237.144531 316.90625 236.796875 316.90625 236.242188 316.90625 235.371094 317.84375 235.070313 318.859375 234.8125L318.859375 236.652344" />
  <path d="M326.199219 232.402344L324.304688 232.402344 324.304688 232.726563C324.671875 232.726563 324.929688 232.78125 324.929688 233.003906 324.929688 233.09375 324.894531 233.195313 324.871094 233.285156L323.800781 236.554688 323.722656 236.554688 323.566406 235.972656 322.472656 233.519531C322.40625 233.363281 322.316406 233.171875 322.316406 233.039063 322.316406 232.835938 322.453125 232.738281 322.953125 232.738281L322.953125 232.402344 320.566406 232.402344 320.566406 232.726563C320.96875 232.726563 321.121094 232.871094 321.234375 233.128906L322.875 236.710938C323.007813 237.011719 323.210938 237.476563 323.210938 237.625 323.210938 237.945313 322.574219 239.332031 322.21875 239.332031 321.9375 239.332031 321.703125 239.085938 321.3125 239.085938 321.011719 239.085938 320.789063 239.230469 320.789063 239.566406 320.789063 239.988281 321.113281 240.144531 321.613281 240.144531 322.519531 240.144531 323.066406 239.566406 323.691406 237.925781L325.429688 233.351563C325.585938 232.914063 325.753906 232.726563 326.199219 232.726563L326.199219 232.402344M139.976563 16.351563L137.34375 16.351563 137.34375 16.683594C137.8125 16.683594 138.011719 16.753906 138.191406 16.964844 138.359375 17.152344 138.402344 17.453125 138.402344 18.125L138.402344 21.738281 138.347656 21.738281 134.21875 16.351563 132.324219 16.351563 132.324219 16.683594C132.824219 16.683594 133.015625 16.796875 133.371094 17.253906L133.371094 22.015625C133.371094 23.144531 133.203125 23.347656 132.324219 23.347656L132.324219 23.679688 134.933594 23.679688 134.933594 23.347656C134.097656 23.347656 133.917969 23.132813 133.917969 22.015625L133.917969 17.800781 133.976563 17.800781 138.59375 23.769531 138.960938 23.769531 138.960938 18.179688C138.960938 17.378906 139.074219 17.0625 139.253906 16.90625 139.417969 16.753906 139.574219 16.683594 139.976563 16.683594L139.976563 16.351563M146.324219 23.179688L146.214844 23.179688C145.679688 23.179688 145.542969 23.101563 145.542969 22.441406L145.542969 18.347656 145.273438 18.347656 143.714844 18.515625 143.714844 18.828125C144.429688 18.828125 144.617188 18.882813 144.617188 19.472656L144.617188 22.40625C144.171875 22.800781 143.8125 23.078125 143.246094 23.078125 142.664063 23.078125 142.242188 22.742188 142.242188 21.605469L142.242188 18.347656 141.996094 18.347656 140.554688 18.515625 140.554688 18.828125C141.160156 18.839844 141.316406 18.882813 141.316406 19.484375L141.316406 21.75C141.316406 23.265625 141.851563 23.789063 142.777344 23.789063 143.492188 23.789063 144.015625 23.457031 144.605469 22.878906L144.664063 22.878906 144.664063 23.734375 144.90625 23.734375 146.324219 23.476563 146.324219 23.179688M148.765625 19.695313C149.089844 19.394531 149.578125 18.984375 150.15625 18.984375 150.671875 18.984375 151.050781 19.226563 151.050781 20.175781L151.050781 22.386719C151.050781 23.167969 150.984375 23.355469 150.191406 23.355469L150.191406 23.679688 152.835938 23.679688 152.835938 23.355469C152.03125 23.355469 151.976563 23.15625 151.976563 22.386719L151.976563 19.675781C152.34375 19.363281 152.804688 18.984375 153.257813 18.984375 153.785156 18.984375 154.21875 19.226563 154.21875 20.242188L154.21875 22.386719C154.21875 23.066406 154.1875 23.355469 153.425781 23.355469L153.425781 23.679688 155.949219 23.679688 155.949219 23.355469C155.179688 23.355469 155.144531 23.089844 155.144531 22.386719L155.144531 20.109375C155.144531 18.761719 154.578125 18.269531 153.707031 18.269531 153.117188 18.269531 152.546875 18.59375 151.933594 19.195313L151.886719 19.195313C151.664063 18.660156 151.285156 18.269531 150.648438 18.269531 149.890625 18.269531 149.378906 18.683594 148.773438 19.207031L148.730469 19.207031 148.730469 18.300781 148.464844 18.300781 147.070313 18.628906 147.070313 18.949219C147.070313 18.949219 147.203125 18.925781 147.367188 18.925781 147.679688 18.925781 147.839844 19.027344 147.839844 19.429688L147.839844 22.554688C147.839844 23.222656 147.757813 23.355469 147.054688 23.355469L147.054688 23.679688 149.601563 23.679688 149.601563 23.355469C148.910156 23.355469 148.765625 23.222656 148.765625 22.597656L148.765625 19.695313M158.019531 15.804688L157.726563 15.804688 156.289063 16.195313 156.289063 16.507813C156.289063 16.507813 156.421875 16.484375 156.601563 16.484375 157.023438 16.484375 157.09375 16.574219 157.09375 17.074219L157.09375 23.347656C157.359375 23.492188 158.007813 23.789063 158.957031 23.789063 160.507813 23.789063 161.632813 22.742188 161.632813 20.746094 161.632813 19.296875 160.875 18.269531 159.769531 18.269531 159.023438 18.269531 158.441406 18.75 158.050781 19.21875L158.019531 19.21875zM158.019531 19.707031C158.21875 19.441406 158.710938 19.027344 159.28125 19.027344 160.339844 19.027344 160.617188 20.03125 160.617188 21.101563 160.617188 22.339844 160.214844 23.335938 159.15625 23.335938 158.566406 23.335938 158.230469 23.066406 158.019531 22.808594L158.019531 19.707031M166.730469 22.085938C166.371094 22.554688 166.027344 22.953125 165.121094 22.953125 164.230469 22.953125 163.382813 22.253906 163.382813 20.714844L166.90625 20.714844C166.851563 19.148438 166.050781 18.269531 164.832031 18.269531 163.527344 18.269531 162.480469 19.160156 162.480469 21.023438 162.480469 22.820313 163.515625 23.789063 164.855469 23.789063 166.003906 23.789063 166.539063 23.089844 166.941406 22.242188zM163.371094 20.300781C163.460938 19.261719 163.90625 18.714844 164.664063 18.714844 165.457031 18.714844 165.828125 19.472656 165.859375 20.300781L163.371094 20.300781M169.34375 18.300781L169.074219 18.300781 167.691406 18.636719 167.691406 18.949219C167.691406 18.949219 167.8125 18.925781 168.035156 18.925781 168.4375 18.925781 168.4375 19.128906 168.4375 19.53125L168.4375 22.597656C168.4375 23.222656 168.359375 23.355469 167.621094 23.355469L167.621094 23.679688 170.414063 23.679688 170.414063 23.355469C169.578125 23.355469 169.363281 23.246094 169.363281 22.542969L169.363281 20C169.632813 19.550781 169.988281 19.082031 170.246094 19.082031 170.378906 19.082031 170.601563 19.464844 170.96875 19.464844 171.214844 19.464844 171.460938 19.285156 171.460938 18.859375 171.460938 18.480469 171.25 18.234375 170.8125 18.234375 170.277344 18.234375 169.945313 18.628906 169.375 19.453125L169.34375 19.453125 169.34375 18.300781M177.078125 18.269531C175.570313 18.269531 174.578125 19.363281 174.578125 20.980469 174.578125 22.789063 175.515625 23.789063 177.078125 23.789063 178.527344 23.789063 179.554688 22.808594 179.554688 20.9375 179.554688 19.285156 178.605469 18.269531 177.078125 18.269531zM177.035156 18.691406C178.027344 18.691406 178.527344 19.617188 178.527344 20.992188 178.527344 22.808594 178.039063 23.347656 177.121094 23.347656 176.164063 23.355469 175.617188 22.609375 175.617188 20.835938 175.617188 19.40625 176.1875 18.691406 177.035156 18.691406M180.191406 18.402344L180.191406 18.871094 181.039063 18.871094 181.039063 22.351563C181.039063 23.222656 180.914063 23.355469 180.101563 23.355469L180.101563 23.679688 183.101563 23.679688 183.101563 23.355469C182.175781 23.355469 181.964844 23.222656 181.964844 22.351563L181.964844 18.871094 183.324219 18.871094 183.324219 18.402344 181.964844 18.402344 181.964844 17.410156C181.964844 16.472656 182.085938 16.136719 182.5 16.136719 183.058594 16.136719 183.113281 16.984375 183.671875 16.984375 183.929688 16.984375 184.128906 16.828125 184.128906 16.507813 184.128906 16.003906 183.601563 15.726563 182.878906 15.726563 182.097656 15.726563 181.695313 16.027344 181.394531 16.539063 181.105469 17.054688 181.039063 17.554688 181.039063 18.402344L180.191406 18.402344M188.085938 22.21875C188.085938 23.179688 187.984375 23.347656 186.980469 23.347656L186.980469 23.679688 190.191406 23.679688 190.191406 23.347656C189.199219 23.347656 189.097656 23.179688 189.097656 22.21875L189.097656 17.820313C189.097656 16.953125 189.132813 16.683594 190.191406 16.683594L190.191406 16.351563 186.980469 16.351563 186.980469 16.683594C188.039063 16.683594 188.085938 16.953125 188.085938 17.820313L188.085938 22.21875M195.152344 22.027344C194.648438 22.675781 194.269531 22.953125 193.546875 22.953125 192.398438 22.953125 191.851563 21.996094 191.851563 20.636719 191.851563 19.351563 192.398438 18.683594 193.300781 18.683594 194.257813 18.683594 193.890625 19.953125 194.71875 19.953125 195.03125 19.953125 195.1875 19.773438 195.1875 19.453125 195.1875 18.804688 194.539063 18.269531 193.488281 18.269531 191.882813 18.269531 190.96875 19.40625 190.96875 21.15625 190.96875 22.710938 191.804688 23.789063 193.199219 23.789063 194.394531 23.789063 194.9375 23.089844 195.363281 22.183594L195.152344 22.027344M200.230469 22.085938C199.871094 22.554688 199.527344 22.953125 198.621094 22.953125 197.730469 22.953125 196.882813 22.253906 196.882813 20.714844L200.40625 20.714844C200.351563 19.148438 199.550781 18.269531 198.332031 18.269531 197.027344 18.269531 195.980469 19.160156 195.980469 21.023438 195.980469 22.820313 197.015625 23.789063 198.355469 23.789063 199.503906 23.789063 200.039063 23.089844 200.441406 22.242188zM196.871094 20.300781C196.960938 19.261719 197.40625 18.714844 198.164063 18.714844 198.957031 18.714844 199.328125 19.472656 199.359375 20.300781L196.871094 20.300781M210.183594 22.015625C209.558594 22.699219 208.8125 23.101563 207.785156 23.101563 206.210938 23.101563 205.117188 22.140625 205.117188 19.910156 205.117188 17.925781 206.023438 16.695313 207.628906 16.695313 208.777344 16.695313 209.570313 17.308594 209.816406 18.769531L210.195313 18.769531 210.195313 16.214844 209.859375 16.214844C209.726563 16.4375 209.660156 16.617188 209.480469 16.617188 209.203125 16.617188 208.789063 16.214844 207.617188 16.214844 205.476563 16.214844 203.957031 17.589844 203.957031 20.019531 203.957031 22.195313 205.164063 23.804688 207.460938 23.804688 208.921875 23.804688 209.847656 23.15625 210.453125 22.253906L210.183594 22.015625M212.941406 18.300781L212.671875 18.300781 211.289063 18.636719 211.289063 18.949219C211.289063 18.949219 211.414063 18.925781 211.636719 18.925781 212.039063 18.925781 212.039063 19.128906 212.039063 19.53125L212.039063 22.597656C212.039063 23.222656 211.960938 23.355469 211.222656 23.355469L211.222656 23.679688 214.011719 23.679688 214.011719 23.355469C213.175781 23.355469 212.964844 23.246094 212.964844 22.542969L212.964844 20C213.230469 19.550781 213.589844 19.082031 213.84375 19.082031 213.980469 19.082031 214.203125 19.464844 214.570313 19.464844 214.816406 19.464844 215.0625 19.285156 215.0625 18.859375 215.0625 18.480469 214.851563 18.234375 214.414063 18.234375 213.878906 18.234375 213.542969 18.628906 212.976563 19.453125L212.941406 19.453125 212.941406 18.300781M219.628906 22.085938C219.273438 22.554688 218.925781 22.953125 218.023438 22.953125 217.132813 22.953125 216.28125 22.253906 216.28125 20.714844L219.808594 20.714844C219.753906 19.148438 218.949219 18.269531 217.734375 18.269531 216.429688 18.269531 215.378906 19.160156 215.378906 21.023438 215.378906 22.820313 216.417969 23.789063 217.757813 23.789063 218.90625 23.789063 219.441406 23.089844 219.84375 22.242188zM216.273438 20.300781C216.359375 19.261719 216.808594 18.714844 217.566406 18.714844 218.359375 18.714844 218.726563 19.472656 218.757813 20.300781L216.273438 20.300781M223.636719 22.988281C223.703125 23.476563 223.8125 23.734375 224.304688 23.734375 224.875 23.734375 225.140625 23.503906 225.511719 22.964844L225.34375 22.789063C225.1875 22.953125 225.03125 23.066406 224.820313 23.066406 224.585938 23.066406 224.484375 22.976563 224.484375 22.519531L224.484375 19.988281C224.484375 18.828125 224.027344 18.269531 222.8125 18.269531 221.59375 18.269531 220.847656 18.871094 220.847656 19.496094 220.847656 19.863281 221.09375 20.03125 221.316406 20.03125 221.628906 20.03125 221.804688 19.863281 221.804688 19.519531 221.804688 18.847656 221.917969 18.613281 222.554688 18.613281 223.222656 18.613281 223.558594 18.984375 223.558594 19.953125L223.558594 20.445313C222.597656 20.746094 220.621094 21.035156 220.621094 22.507813 220.621094 23.222656 221.09375 23.757813 221.953125 23.757813 222.664063 23.757813 223.066406 23.445313 223.59375 22.988281zM223.558594 22.652344C223.179688 22.964844 222.777344 23.144531 222.410156 23.144531 221.929688 23.144531 221.605469 22.800781 221.605469 22.242188 221.605469 21.371094 222.542969 21.070313 223.558594 20.8125L223.558594 22.652344M227.664063 19.695313C227.988281 19.394531 228.476563 18.984375 229.058594 18.984375 229.570313 18.984375 229.953125 19.226563 229.953125 20.175781L229.953125 22.386719C229.953125 23.167969 229.882813 23.355469 229.09375 23.355469L229.09375 23.679688 231.734375 23.679688 231.734375 23.355469C230.933594 23.355469 230.878906 23.15625 230.878906 22.386719L230.878906 19.675781C231.246094 19.363281 231.703125 18.984375 232.160156 18.984375 232.683594 18.984375 233.117188 19.226563 233.117188 20.242188L233.117188 22.386719C233.117188 23.066406 233.085938 23.355469 232.328125 23.355469L232.328125 23.679688 234.847656 23.679688 234.847656 23.355469C234.078125 23.355469 234.046875 23.089844 234.046875 22.386719L234.046875 20.109375C234.046875 18.761719 233.476563 18.269531 232.605469 18.269531 232.015625 18.269531 231.445313 18.59375 230.832031 19.195313L230.789063 19.195313C230.5625 18.660156 230.1875 18.269531 229.550781 18.269531 228.789063 18.269531 228.277344 18.683594 227.675781 19.207031L227.628906 19.207031 227.628906 18.300781 227.363281 18.300781 225.96875 18.628906 225.96875 18.949219C225.96875 18.949219 226.101563 18.925781 226.269531 18.925781 226.582031 18.925781 226.738281 19.027344 226.738281 19.429688L226.738281 22.554688C226.738281 23.222656 226.660156 23.355469 225.957031 23.355469L225.957031 23.679688 228.5 23.679688 228.5 23.355469C227.808594 23.355469 227.664063 23.222656 227.664063 22.597656L227.664063 19.695313M235.632813 21.851563L235.667969 23.769531 235.902344 23.769531 236.136719 23.511719 236.160156 23.511719C236.449219 23.636719 236.785156 23.804688 237.429688 23.804688 238.4375 23.804688 239.304688 23.398438 239.304688 22.351563 239.304688 21.527344 238.757813 21.113281 237.742188 20.578125 236.804688 20.097656 236.4375 19.820313 236.4375 19.386719 236.4375 18.882813 236.828125 18.648438 237.34375 18.648438 238.023438 18.648438 238.4375 18.972656 238.679688 20.03125L238.980469 20.03125 238.949219 18.324219 238.726563 18.324219 238.535156 18.558594 238.523438 18.558594C238.246094 18.425781 237.910156 18.269531 237.351563 18.269531 236.394531 18.269531 235.648438 18.761719 235.648438 19.675781 235.648438 20.5 236.101563 20.890625 237.117188 21.402344 238.15625 21.917969 238.367188 22.128906 238.367188 22.652344 238.367188 23.179688 237.96875 23.390625 237.410156 23.390625 236.582031 23.390625 236.160156 23 235.925781 21.851563L235.632813 21.851563M247.109375 18.472656L247.03125 16.238281 246.742188 16.238281C246.683594 16.472656 246.574219 16.5625 246.394531 16.5625 246.128906 16.5625 245.882813 16.214844 244.867188 16.214844 243.707031 16.226563 242.746094 16.851563 242.746094 18.023438 242.746094 19.195313 243.648438 19.730469 244.542969 20.242188 245.457031 20.765625 246.394531 21.15625 246.394531 22.140625 246.394531 22.988281 245.871094 23.324219 245.035156 23.324219 243.894531 23.335938 243.328125 22.976563 242.9375 21.4375L242.589844 21.4375 242.691406 23.847656 243.039063 23.847656C243.046875 23.625 243.179688 23.476563 243.339844 23.476563 243.59375 23.476563 244.03125 23.8125 245.191406 23.8125 246.484375 23.8125 247.453125 23.109375 247.453125 21.816406 247.453125 20.488281 246.351563 19.988281 245.359375 19.429688 244.519531 18.949219 243.71875 18.550781 243.71875 17.710938 243.71875 17.019531 244.152344 16.664063 244.910156 16.664063 246.039063 16.652344 246.460938 17.242188 246.773438 18.472656L247.109375 18.472656M250.777344 18.269531C249.273438 18.269531 248.28125 19.363281 248.28125 20.980469 248.28125 22.789063 249.21875 23.789063 250.777344 23.789063 252.226563 23.789063 253.253906 22.808594 253.253906 20.9375 253.253906 19.285156 252.304688 18.269531 250.777344 18.269531zM250.734375 18.691406C251.726563 18.691406 252.226563 19.617188 252.226563 20.992188 252.226563 22.808594 251.738281 23.347656 250.824219 23.347656 249.863281 23.355469 249.316406 22.609375 249.316406 20.835938 249.316406 19.40625 249.886719 18.691406 250.734375 18.691406M256.5 23.355469C255.695313 23.355469 255.640625 23.199219 255.640625 22.554688L255.640625 15.804688 255.363281 15.804688 253.890625 16.195313 253.890625 16.496094C253.890625 16.496094 254.058594 16.472656 254.246094 16.472656 254.527344 16.472656 254.714844 16.496094 254.714844 16.953125L254.714844 22.554688C254.714844 23.179688 254.671875 23.355469 253.933594 23.355469L253.933594 23.679688 256.5 23.679688 256.5 23.355469M262.535156 23.476563L262.535156 23.179688 262.300781 23.179688C261.886719 23.179688 261.742188 23.066406 261.742188 22.484375L261.742188 15.804688 261.441406 15.804688 260.035156 16.195313 260.035156 16.507813C260.035156 16.507813 260.226563 16.484375 260.324219 16.484375 260.761719 16.484375 260.816406 16.585938 260.816406 17.074219L260.816406 18.535156C260.46875 18.347656 260.101563 18.269531 259.734375 18.269531 258.328125 18.269531 257.167969 19.394531 257.167969 21.234375 257.167969 22.664063 257.816406 23.769531 259.078125 23.769531 259.8125 23.769531 260.382813 23.347656 260.804688 22.964844L260.851563 22.964844 260.851563 23.734375 261.105469 23.734375zM260.816406 22.554688C260.425781 22.820313 260.125 22.964844 259.601563 22.964844 258.652344 22.964844 258.140625 22.339844 258.140625 20.800781 258.140625 19.394531 258.773438 18.714844 259.714844 18.714844 260.402344 18.714844 260.726563 19.148438 260.816406 19.609375L260.816406 22.554688" />
  <path d="M832.734375 973.823437L892.5 1033.628125M832.734375 1033.628125L892.5 973.823437M1573.75 1220.854687L1633.515625 1280.620312M1573.75 1280.620312L1633.515625 1220.854687M2314.765625 1509.057812L2374.570313 1568.823437M2314.765625 1568.823437L2374.570313 1509.057812M3055.820313 1961.909375L3115.585938 2021.675M3055.820313 2021.675L3115.585938 1961.909375" transform="matrix(.1 0 0 -.1 0 271.48)" fill="none" stroke-width="14.944" stroke-linejoin="round" stroke="#55a4e0" stroke-miterlimit="10" />
  <path d="M 862.617188 1003.745312 L 1603.632813 1250.7375 L 2344.6875 1538.940625 L 3085.703125 1991.792187" transform="matrix(.1 0 0 -.1 0 271.48)" fill="none" stroke-width="7.97" stroke-linejoin="round" stroke="#55a4e0" stroke-miterlimit="10" />
</svg>